<svg width="168" height="186" viewBox="0 0 168 186" fill="none" xmlns="http://www.w3.org/2000/svg">
<g id="dm">
<path id="Vector_177" opacity="0.8" d="M11.0394 146.953C4.6764 143.28 0.756409 136.491 0.756409 129.143V56.765C0.756409 49.418 4.6764 42.629 11.0394 38.956L73.7584 2.754C80.1194 -0.918 87.9564 -0.918 94.3184 2.754L157.036 38.956C163.4 42.629 167.32 49.418 167.32 56.765V129.143C167.32 136.491 163.4 143.28 157.036 146.953L94.3184 183.155C87.9564 186.827 80.1194 186.827 73.7584 183.155L11.0394 146.953Z" fill="#092DA4"/>
<path id="Vector_178" d="M131.397 92.999C131.397 83.577 128.603 74.366 123.368 66.532C118.133 58.698 110.693 52.592 101.988 48.986C93.2834 45.38 83.7044 44.437 74.4634 46.275C65.2214 48.113 56.7334 52.65 50.0704 59.313C43.4084 65.975 38.8704 74.464 37.0324 83.705C35.1944 92.947 36.1374 102.525 39.7434 111.23C43.3494 119.935 49.4554 127.376 57.2894 132.611C65.1244 137.845 74.3354 140.639 83.7574 140.639C96.3924 140.639 108.509 135.62 117.443 126.686C126.378 117.752 131.397 105.634 131.397 92.999Z" fill="black"/>
<path id="Vector_179" fill-rule="evenodd" clip-rule="evenodd" d="M35.7564 92.82C35.7564 83.327 38.5714 74.046 43.8454 66.153C49.1194 58.259 56.6164 52.107 65.3874 48.474C74.1584 44.841 83.8094 43.89 93.1204 45.742C102.431 47.594 110.984 52.166 117.697 58.879C124.41 65.592 128.981 74.145 130.833 83.456C132.685 92.767 131.735 102.418 128.102 111.189C124.469 119.96 118.316 127.456 110.423 132.731C102.529 138.005 93.2494 140.82 83.7564 140.82C71.0254 140.82 58.8164 135.763 49.8144 126.761C40.8134 117.759 35.7564 105.55 35.7564 92.82ZM83.7564 48.732C75.0364 48.732 66.5124 51.318 59.2624 56.162C52.0114 61.007 46.3604 67.892 43.0244 75.948C39.6874 84.004 38.8144 92.869 40.5154 101.421C42.2164 109.973 46.4154 117.829 52.5814 123.995C58.7464 130.161 66.6024 134.36 75.1544 136.061C83.7074 137.762 92.5714 136.889 100.627 133.552C108.683 130.215 115.569 124.564 120.413 117.314C125.258 110.064 127.843 101.54 127.843 92.82C127.837 81.129 123.19 69.919 114.923 61.652C106.657 53.385 95.4464 48.738 83.7564 48.732Z" fill="#FF631A"/>
<path id="Vector_180" d="M86.3504 115.416C90.6054 115.459 94.7824 114.272 98.3794 111.999C101.977 109.725 104.842 106.462 106.63 102.6C104.322 103.603 101.825 104.094 99.3104 104.04C94.5884 104.034 90.0634 102.155 86.7244 98.8171C83.3864 95.4791 81.5084 90.9531 81.5024 86.2321C81.5454 82.9651 82.4564 79.7671 84.1424 76.9681C85.8204 74.1591 88.2244 71.8551 91.1024 70.2961C89.5114 70.0781 87.9074 69.9821 86.3024 70.0081C80.4114 70.2001 74.8264 72.6741 70.7274 76.9091C66.6274 81.1441 64.3364 86.8061 64.3364 92.7001C64.3364 98.5941 66.6274 104.256 70.7274 108.491C74.8264 112.726 80.4114 115.2 86.3024 115.392L86.3504 115.416Z" fill="#D7F1E1"/>
<path id="Vector_181" d="M105.187 78.72C105.661 78.72 106.125 78.5801 106.52 78.3161C106.915 78.0521 107.222 77.6771 107.404 77.2391C107.586 76.8001 107.633 76.318 107.541 75.852C107.448 75.387 107.219 74.959 106.884 74.623C106.548 74.288 106.121 74.0591 105.655 73.9671C105.189 73.8741 104.707 73.921 104.268 74.103C103.83 74.285 103.455 74.592 103.191 74.987C102.928 75.382 102.787 75.8461 102.787 76.3201C102.787 76.9571 103.04 77.567 103.49 78.017C103.94 78.468 104.55 78.72 105.187 78.72Z" fill="white"/>
<path id="Vector_182" d="M95.7554 99.3601C95.9184 99.3651 96.0794 99.3211 96.2174 99.2331C96.3554 99.1451 96.4634 99.0181 96.5284 98.8681C96.5934 98.7181 96.6114 98.5521 96.5804 98.3911C96.5494 98.2311 96.4714 98.0831 96.3564 97.9681C96.2404 97.8521 96.0924 97.7741 95.9324 97.7431C95.7714 97.7121 95.6054 97.7311 95.4554 97.7951C95.3054 97.8601 95.1784 97.9681 95.0904 98.1061C95.0034 98.2441 94.9584 98.4051 94.9634 98.5681C94.9634 98.7781 95.0464 98.9801 95.1954 99.1281C95.3434 99.2771 95.5454 99.3601 95.7554 99.3601Z" fill="white"/>
<path id="Vector_183" d="M90.9564 83.4C91.1664 83.4 91.3674 83.317 91.5164 83.168C91.6644 83.02 91.7484 82.818 91.7484 82.608C91.7484 82.398 91.6644 82.197 91.5164 82.048C91.3674 81.9 91.1664 81.816 90.9564 81.816C90.7464 81.816 90.5444 81.9 90.3964 82.048C90.2474 82.197 90.1644 82.398 90.1644 82.608C90.1644 82.818 90.2474 83.02 90.3964 83.168C90.5444 83.317 90.7464 83.4 90.9564 83.4Z" fill="white"/>
<path id="Vector_184" d="M114.717 94.584C114.874 94.584 115.027 94.538 115.157 94.451C115.288 94.364 115.389 94.24 115.449 94.095C115.509 93.95 115.525 93.791 115.494 93.637C115.464 93.484 115.388 93.343 115.277 93.232C115.167 93.121 115.026 93.046 114.872 93.015C114.718 92.985 114.559 93 114.414 93.06C114.27 93.12 114.146 93.222 114.059 93.352C113.972 93.482 113.925 93.635 113.925 93.792C113.925 94.002 114.009 94.204 114.157 94.352C114.306 94.501 114.507 94.584 114.717 94.584Z" fill="white"/>
</g>
</svg>
