<svg width="69" height="76" viewBox="0 0 69 76" fill="none" xmlns="http://www.w3.org/2000/svg">
<g id="evr">
<path id="Vector_185" d="M4.6554 59.8729C2.1794 58.4439 0.654419 55.8019 0.654419 52.9439V23.0709C0.654419 20.2119 2.1794 17.5709 4.6554 16.1419L30.5334 1.20393C33.0084 -0.224065 36.0574 -0.224065 38.5324 1.20393L64.4104 16.1419C66.8864 17.5709 68.4114 20.2119 68.4114 23.0709V52.9439C68.4114 55.8019 66.8864 58.4439 64.4104 59.8729L38.5324 74.8109C36.0574 76.2389 33.0084 76.2389 30.5334 74.8109L4.6554 59.8729Z" fill="#092DA4"/>
<path id="Vector_186" fill-rule="evenodd" clip-rule="evenodd" d="M26.5974 36.992C27.6694 39.098 29.3964 40.818 31.5024 41.897L33.1394 40.259C33.3404 40.058 33.6384 39.992 33.8984 40.081C34.7324 40.356 35.6324 40.505 36.5554 40.505C36.9654 40.505 37.3004 40.84 37.3004 41.249V43.847C37.3004 44.256 36.9654 44.591 36.5554 44.591C29.5674 44.591 23.9034 38.927 23.9034 31.939C23.9034 31.529 24.2384 31.194 24.6474 31.194H27.2524C27.6614 31.194 27.9964 31.529 27.9964 31.939C27.9964 32.869 28.1454 33.762 28.4214 34.596C28.5024 34.856 28.4434 35.146 28.2354 35.355L26.5974 36.992ZM36.6744 31.708L36.1464 31.187L31.3464 35.876V32.683H30.6014V37.149H35.0674V36.404H31.9784L36.6744 31.708Z" fill="white"/>
<path id="Vector_187" fill-rule="evenodd" clip-rule="evenodd" d="M43.3784 45.1589V41.1559L50.5634 46.2879C50.9864 46.5899 51.5424 46.6309 52.0044 46.3929C52.4664 46.1549 52.7574 45.6789 52.7574 45.1589V31.2829C52.7574 30.7629 52.4664 30.2869 52.0044 30.0489C51.5424 29.8109 50.9864 29.8509 50.5634 30.1529L43.3784 35.2849V31.2829C43.3784 28.8329 41.1974 27.1199 38.8644 27.1199H21.6704C19.3374 27.1199 17.1564 28.8329 17.1564 31.2829V45.1589C17.1564 47.6089 19.3374 49.3219 21.6704 49.3219H38.8644C41.1974 49.3219 43.3784 47.6089 43.3784 45.1589ZM31.5024 41.8969C29.3954 40.8179 27.6694 39.0979 26.5974 36.9919L28.2344 35.3549C28.4434 35.1459 28.5024 34.8559 28.4204 34.5959C28.1454 33.7619 27.9964 32.8689 27.9964 31.9389C27.9964 31.5289 27.6614 31.1939 27.2524 31.1939H24.6474C24.2384 31.1939 23.9034 31.5289 23.9034 31.9389C23.9034 38.9269 29.5674 44.5909 36.5554 44.5909C36.9644 44.5909 37.2994 44.2559 37.2994 43.8469V41.2489C37.2994 40.8399 36.9644 40.5049 36.5554 40.5049C35.6324 40.5049 34.7324 40.3559 33.8984 40.0809C33.6384 39.9909 33.3404 40.0579 33.1394 40.2589L31.5024 41.8969ZM36.1464 31.1869L36.6744 31.7079L31.9784 36.4039H35.0674V37.1479H30.6014V32.6829H31.3454V35.8759L36.1464 31.1869Z" fill="#407BFF"/>
</g>
</svg>
