<svg width="94" height="90" viewBox="0 0 94 90" fill="none" xmlns="http://www.w3.org/2000/svg">
<g id="tls">
<path id="Vector_339" opacity="0.5" d="M0.756409 30.3279C0.756409 27.4699 2.2804 24.8289 4.7554 23.3999L43.1154 1.24694C45.5914 -0.183061 48.6414 -0.183061 51.1174 1.24694L89.4774 23.3999C91.9524 24.8289 93.4764 27.4699 93.4764 30.3279V74.6169C93.4764 77.4759 91.9514 80.1169 89.4764 81.5459L76.2024 89.2089C52.5054 83.424 27.4574 80.0969 2.2164 79.2259C1.2814 77.8989 0.756409 76.2959 0.756409 74.6169V30.3279Z" fill="#0E32A8"/>
<path id="Vector_340" d="M67.7554 36.2499C67.7574 35.5599 67.6224 34.8769 67.3594 34.2389C67.0964 33.6009 66.7094 33.0219 66.2214 32.5339C65.7334 32.0459 65.1544 31.6599 64.5164 31.3969C63.8794 31.1329 63.1954 30.9979 62.5054 30.9999H31.0064C30.3164 30.9979 29.6324 31.1329 28.9954 31.3969C28.3574 31.6599 27.7784 32.0459 27.2904 32.5339C26.8024 33.0219 26.4154 33.6009 26.1524 34.2389C25.8894 34.8769 25.7544 35.5599 25.7564 36.2499V67.7499C25.7544 68.4399 25.8894 69.1229 26.1524 69.7609C26.4154 70.3989 26.8024 70.9779 27.2904 71.4659C27.7784 71.9539 28.3574 72.3399 28.9954 72.6029C29.6324 72.8669 30.3164 73.0019 31.0064 72.9999H62.5054C63.1954 73.0019 63.8794 72.8669 64.5164 72.6029C65.1544 72.3399 65.7334 71.9539 66.2214 71.4659C66.7094 70.9779 67.0964 70.3989 67.3594 69.7609C67.6224 69.1229 67.7574 68.4399 67.7554 67.7499V36.2499Z" fill="url(#paint0_linear_1_725)"/>
<path id="Vector_341" d="M48.5644 39.4349H38.0644C37.5824 39.4409 37.1224 39.6369 36.7844 39.9799C36.4454 40.3229 36.2554 40.7849 36.2564 41.2669V64.5999C36.2564 64.8419 36.3034 65.0809 36.3964 65.3039C36.4894 65.5269 36.6254 65.7289 36.7964 65.8989C36.9674 66.0699 37.1714 66.2039 37.3944 66.2959C37.6184 66.3869 37.8574 66.4329 38.0994 66.4319H54.0704C54.3124 66.4329 54.5514 66.3869 54.7754 66.2959C54.9994 66.2039 55.2024 66.0699 55.3734 65.8989C55.5454 65.7289 55.6814 65.5269 55.7734 65.3039C55.8664 65.0809 55.9144 64.8419 55.9144 64.5999V46.8199L51.6094 43.7279L48.5644 39.4349Z" fill="#0F9D58"/>
<path id="Vector_342" d="M41.1794 52.653V61.5779H51.0264V52.653H41.1794ZM45.4734 60.3299H42.3934V58.7899H45.4734V60.3299ZM45.4734 57.868H42.3934V56.3279H45.4734V57.868ZM45.4734 55.407H42.3934V53.8669H45.4734V55.407ZM49.7784 60.3299H46.6864V58.7899H49.7784V60.3299ZM49.7784 57.868H46.6864V56.3279H49.7784V57.868ZM49.7784 55.407H46.6864V53.8669H49.7784V55.407Z" fill="#F1F1F1"/>
<path id="Vector_343" d="M49.0904 46.2949L55.9384 53.1669V46.8669L49.0904 46.2949Z" fill="url(#paint1_linear_1_725)"/>
<path id="Vector_344" d="M48.5394 39.4469V44.9999C48.5374 45.2419 48.5834 45.4809 48.6754 45.7049C48.7664 45.9279 48.9014 46.1319 49.0714 46.3029C49.2414 46.4739 49.4444 46.6099 49.6674 46.7029C49.8904 46.7959 50.1294 46.8429 50.3704 46.8429H55.9124L48.5394 39.4469Z" fill="#87CEAC"/>
<path id="Vector_345" opacity="0.2" d="M38.0994 39.435C37.8574 39.434 37.6184 39.48 37.3944 39.571C37.1714 39.663 36.9674 39.797 36.7964 39.967C36.6254 40.138 36.4894 40.3399 36.3964 40.5629C36.3034 40.7859 36.2564 41.025 36.2564 41.267V41.4299C36.2564 41.1889 36.3034 40.949 36.3964 40.726C36.4894 40.503 36.6254 40.301 36.7964 40.131C36.9674 39.961 37.1714 39.826 37.3944 39.734C37.6184 39.643 37.8574 39.5969 38.0994 39.5979H48.5994V39.435H38.0994Z" fill="white"/>
<path id="Vector_346" opacity="0.2" d="M54.0704 66.339H38.0994C37.8574 66.34 37.6184 66.294 37.3944 66.202C37.1714 66.111 36.9674 65.976 36.7964 65.806C36.6254 65.636 36.4894 65.433 36.3964 65.21C36.3034 64.987 36.2564 64.748 36.2564 64.507V64.67C36.2564 64.912 36.3034 65.151 36.3964 65.374C36.4894 65.597 36.6254 65.799 36.7964 65.969C36.9674 66.14 37.1714 66.274 37.3944 66.366C37.6184 66.457 37.8574 66.503 38.0994 66.502H54.0704C54.3124 66.503 54.5514 66.457 54.7754 66.366C54.9994 66.274 55.2024 66.14 55.3734 65.969C55.5454 65.799 55.6814 65.597 55.7734 65.374C55.8664 65.151 55.9144 64.912 55.9144 64.67V64.507C55.9154 64.749 55.8694 64.989 55.7764 65.212C55.6844 65.436 55.5484 65.639 55.3774 65.81C55.2054 65.98 55.0014 66.115 54.7774 66.206C54.5534 66.296 54.3124 66.342 54.0704 66.339Z" fill="#263238"/>
<path id="Vector_347" opacity="0.1" d="M50.3964 46.82C49.9124 46.82 49.4484 46.629 49.1054 46.288C48.7624 45.947 48.5674 45.484 48.5644 45V45.128C48.5634 45.37 48.6094 45.609 48.7004 45.833C48.7924 46.056 48.9264 46.26 49.0964 46.431C49.2674 46.602 49.4694 46.738 49.6924 46.831C49.9154 46.924 50.1544 46.972 50.3964 46.972H55.9494V46.808H50.3964V46.82Z" fill="#263238"/>
<path id="Vector_348" d="M55.6114 37.2069C56.3804 37.2129 57.1414 37.3679 57.8514 37.6619C58.1924 37.8089 58.5204 37.985 58.8314 38.187C59.4484 38.585 59.9734 39.1099 60.3714 39.7269C60.5874 40.0339 60.7644 40.3669 60.8964 40.7179C61.2064 41.4199 61.3654 42.1789 61.3634 42.9469C61.3554 43.7129 61.1974 44.4699 60.8964 45.1749C60.7494 45.5159 60.5734 45.8439 60.3714 46.1549C60.1754 46.4639 59.9444 46.7499 59.6834 47.0069C59.4244 47.2689 59.1394 47.5039 58.8314 47.7069C58.5234 47.9139 58.1954 48.0899 57.8514 48.2319C57.1434 48.5319 56.3814 48.687 55.6114 48.687C54.8464 48.679 54.0904 48.5239 53.3834 48.2319C53.0474 48.0749 52.7204 47.8999 52.4034 47.7069C52.0934 47.5059 51.8084 47.2719 51.5514 47.0069C51.2874 46.7529 51.0554 46.4669 50.8634 46.1549C50.6654 45.7699 50.5014 45.443 50.3614 45.1049C50.0614 44.4009 49.9065 43.643 49.9065 42.877C49.9135 42.112 50.0674 41.3549 50.3614 40.6479C50.5014 40.3219 50.7004 39.995 50.8864 39.657C51.0924 39.354 51.3224 39.0699 51.5754 38.8049C51.8414 38.5499 52.1304 38.3189 52.4384 38.1169C52.7444 37.9049 53.0724 37.7289 53.4184 37.5919C54.1194 37.3289 54.8634 37.1979 55.6114 37.2069ZM55.6114 36.8099C54.4124 36.8119 53.2404 37.17 52.2444 37.838C51.2484 38.506 50.4724 39.4539 50.0154 40.5629C49.5574 41.6719 49.4394 42.8909 49.6744 44.0669C49.9104 45.2429 50.4884 46.3229 51.3374 47.1709C52.1864 48.0179 53.2674 48.5949 54.4444 48.8279C55.6204 49.0609 56.8394 48.9399 57.9474 48.4799C59.0554 48.021 60.0024 47.2429 60.6684 46.2459C61.3344 45.2489 61.6904 44.076 61.6904 42.877C61.6834 41.27 61.0404 39.7309 59.9004 38.5979C58.7614 37.4649 57.2184 36.8299 55.6114 36.8329V36.8099Z" fill="white"/>
<path id="Vector_349" d="M50.5594 42.8769C50.5564 43.8299 50.8224 44.7639 51.3284 45.5709C51.8344 46.3789 52.5594 47.0259 53.4174 47.4389L50.9914 40.8469C50.6934 41.4809 50.5454 42.1759 50.5594 42.8769ZM59.0294 42.6439C59.0224 42.1519 58.8724 41.6739 58.5974 41.2669C58.3304 40.9309 58.1604 40.5269 58.1074 40.0999C58.1004 39.9819 58.1164 39.8639 58.1554 39.7529C58.1944 39.6409 58.2554 39.5389 58.3344 39.4519C58.4144 39.3649 58.5104 39.2939 58.6184 39.2449C58.7254 39.1959 58.8414 39.1699 58.9594 39.1669H59.0294C58.4844 38.6869 57.8434 38.3289 57.1484 38.1169C56.4534 37.9049 55.7214 37.8439 55.0014 37.9379C54.2814 38.0319 53.5894 38.2779 52.9724 38.6609C52.3554 39.0439 51.8264 39.5549 51.4224 40.1589H51.7494C52.2744 40.1589 53.0914 40.0889 53.0914 40.0889C53.1404 40.0999 53.1834 40.1269 53.2144 40.1669C53.2454 40.2059 53.2624 40.2539 53.2624 40.3039C53.2624 40.3539 53.2454 40.4029 53.2144 40.4419C53.1834 40.4809 53.1404 40.5089 53.0914 40.5199C53.0914 40.5199 52.8224 40.5199 52.4964 40.5199L54.3394 46.0039L55.4474 42.6669L54.6664 40.4739C54.4914 40.4839 54.3164 40.4839 54.1414 40.4739C53.8724 40.4739 53.9074 40.0419 54.1414 40.0419C54.1414 40.0419 54.9574 40.1119 55.4824 40.1119C56.0074 40.1119 56.8244 40.0419 56.8244 40.0419C56.8734 40.0529 56.9164 40.0809 56.9474 40.1199C56.9784 40.1589 56.9954 40.2079 56.9954 40.2579C56.9954 40.3079 56.9784 40.3559 56.9474 40.3949C56.9164 40.4349 56.8734 40.4619 56.8244 40.4739C56.6264 40.4859 56.4274 40.4859 56.2294 40.4739L58.0724 45.9219L58.5974 44.2769C58.8154 43.7629 58.9604 43.2209 59.0294 42.6669V42.6439ZM55.6814 43.3439L54.1764 47.7299C55.1884 48.0159 56.2634 47.9829 57.2564 47.6369C57.2564 47.6369 57.2564 47.6369 57.2564 47.5669L55.6814 43.3439ZM60.0444 40.4499C60.0634 40.6249 60.0634 40.8009 60.0444 40.9749C60.0344 41.5979 59.8994 42.2129 59.6474 42.7839L58.1074 47.2399C59.2474 46.5799 60.0844 45.4999 60.4394 44.2319C60.7944 42.9629 60.6404 41.6069 60.0094 40.4499H60.0444Z" fill="white"/>
</g>
<defs>
<linearGradient id="paint0_linear_1_725" x1="57.6994" y1="67.1319" x2="28.8244" y2="27.2079" gradientUnits="userSpaceOnUse">
<stop stop-color="#08CF68"/>
<stop offset="1" stop-color="#E2FFBC"/>
</linearGradient>
<linearGradient id="paint1_linear_1_725" x1="52.5194" y1="46.8669" x2="52.5194" y2="53.1199" gradientUnits="userSpaceOnUse">
<stop stop-color="#263238" stop-opacity="0.2"/>
<stop offset="1" stop-color="#263238" stop-opacity="0.02"/>
</linearGradient>
</defs>
</svg>
